<svg width="14" height="13" viewBox="0 0 14 13" fill="none" xmlns="http://www.w3.org/2000/svg">
<path d="M13.5372 4.70793C13.4516 4.44465 13.2181 4.25825 12.9429 4.23335L9.18957 3.8926L7.70623 0.419814C7.59672 0.164672 7.34753 0 7.07016 0C6.7928 0 6.54351 0.164672 6.43469 0.419814L4.95135 3.8926L1.19743 4.23335C0.922251 4.25875 0.689231 4.44515 0.603125 4.70793C0.517516 4.9712 0.596578 5.25997 0.804699 5.4425L3.64192 7.93034L2.80536 11.6148C2.74416 11.8857 2.84931 12.1659 3.0741 12.3284C3.19492 12.4162 3.33688 12.46 3.47933 12.46C3.60174 12.46 3.72425 12.4275 3.83367 12.362L7.07016 10.4268L10.3061 12.362C10.5434 12.5038 10.8419 12.4909 11.0662 12.3284C11.291 12.1659 11.3962 11.8857 11.335 11.6148L10.4984 7.93034L13.3356 5.4425C13.5436 5.25997 13.6228 4.9718 13.5372 4.70793Z" fill="#1F3E76"/>
</svg>
