<svg width="26" height="23" viewBox="0 0 26 23" fill="none" xmlns="http://www.w3.org/2000/svg">
<path d="M0.481445 22.862V8.70996C0.481445 4.33334 3.55978 0.771973 7.34278 0.771973H18.6185C22.4023 0.771973 25.4814 4.33334 25.4814 8.70996V11.1509C25.4814 15.5276 22.4031 19.0889 18.6201 19.0889H7.50185L0.481445 22.862ZM7.34278 2.54169C4.40292 2.54169 2.01113 5.30878 2.01113 8.70996V20.0882L7.16476 17.3183H18.6201C21.56 17.3183 23.9518 14.5512 23.9518 11.15V8.709C23.9518 5.30783 21.5592 2.54074 18.6185 2.54074H7.34278V2.54169ZM7.84719 8.57551C8.65077 8.57551 9.30187 9.32878 9.30187 10.2585C9.30187 11.1881 8.65077 11.9414 7.84719 11.9414C7.04361 11.9414 6.3925 11.1881 6.3925 10.2585C6.3925 9.32878 7.04361 8.57551 7.84719 8.57551ZM18.1149 8.57551C18.9185 8.57551 19.5696 9.32878 19.5696 10.2585C19.5696 11.1881 18.9185 11.9414 18.1149 11.9414C17.3113 11.9414 16.6602 11.1881 16.6602 10.2585C16.6602 9.32878 17.3113 8.57551 18.1149 8.57551ZM12.9802 8.57551C13.7838 8.57551 14.4349 9.32878 14.4349 10.2585C14.4349 11.1881 13.7838 11.9414 12.9802 11.9414C12.1766 11.9414 11.5255 11.1881 11.5255 10.2585C11.5255 9.32878 12.1766 8.57551 12.9802 8.57551Z" fill="#1F3E76"/>
</svg>
