<svg width="14" height="13" viewBox="0 0 14 13" fill="none" xmlns="http://www.w3.org/2000/svg">
<path opacity="0.3" d="M13.5411 4.70793C13.4555 4.44465 13.222 4.25825 12.9468 4.23335L9.19347 3.8926L7.71014 0.419814C7.60062 0.164672 7.35143 0 7.07407 0C6.79671 0 6.54742 0.164672 6.4386 0.419814L4.95526 3.8926L1.20134 4.23335C0.926157 4.25875 0.693137 4.44515 0.607031 4.70793C0.521422 4.9712 0.600484 5.25997 0.808606 5.4425L3.64582 7.93034L2.80927 11.6148C2.74806 11.8857 2.85321 12.1659 3.078 12.3284C3.19883 12.4162 3.34078 12.46 3.48323 12.46C3.60565 12.46 3.72816 12.4275 3.83757 12.362L7.07407 10.4268L10.31 12.362C10.5474 12.5038 10.8458 12.4909 11.0701 12.3284C11.2949 12.1659 11.4001 11.8857 11.3389 11.6148L10.5023 7.93034L13.3395 5.4425C13.5476 5.25997 13.6267 4.9718 13.5411 4.70793Z" fill="#5B7486"/>
</svg>
