<svg width="12" height="20" viewBox="0 0 12 20" fill="none" xmlns="http://www.w3.org/2000/svg">
<path d="M10.999 0.00416129L8.40546 0C5.49172 0 3.60874 1.93188 3.60874 4.92198V7.19134H1.00107C0.775735 7.19134 0.593262 7.37402 0.593262 7.59935V10.8874C0.593262 11.1127 0.775943 11.2952 1.00107 11.2952H3.60874V19.592C3.60874 19.8173 3.79121 19.9998 4.01655 19.9998H7.41882C7.64415 19.9998 7.82662 19.8171 7.82662 19.592V11.2952H10.8756C11.1009 11.2952 11.2834 11.1127 11.2834 10.8874L11.2847 7.59935C11.2847 7.49116 11.2416 7.38754 11.1652 7.31097C11.0889 7.23441 10.9848 7.19134 10.8766 7.19134H7.82662V5.26757C7.82662 4.34293 8.04696 3.87354 9.25145 3.87354L10.9986 3.87291C11.2237 3.87291 11.4062 3.69023 11.4062 3.46511V0.411968C11.4062 0.18705 11.2239 0.00457742 10.999 0.00416129Z" fill="#1F3E76"/>
</svg>
