<svg width="327" height="327" viewBox="0 0 327 327" fill="none" xmlns="http://www.w3.org/2000/svg">
<g clip-path="url(#clip0_14_6)">
<path d="M327 122.626L315.943 133.683C309.731 139.896 302.556 145.067 294.697 148.997L271.33 160.681L166.321 55.6718L178.005 32.3044C181.935 24.4459 187.106 17.2723 193.318 11.0586L204.375 0.0014801C204.375 0.000808716 327 122.626 327 122.626Z" fill="white"/>
<path d="M243.674 190.823C218.007 231.346 224.813 265.688 224.813 265.688L0.00025177 327L61.3126 102.187C61.3126 102.187 95.6546 108.994 136.177 83.3267C136.178 83.3267 243.674 190.823 243.674 190.823ZM81.7504 214.594C81.7504 231.524 95.4759 245.25 112.407 245.25C129.337 245.25 143.063 231.524 143.063 214.594C143.063 197.663 129.337 183.938 112.407 183.938C95.4759 183.938 81.7504 197.663 81.7504 214.594Z" fill="white"/>
</g>
<defs>
<clipPath id="clip0_14_6">
<rect width="327" height="327" fill="white" transform="matrix(0 -1 -1 0 327 327)"/>
</clipPath>
</defs>
</svg>
